<?xml version="1.0" standalone="no"?>
<!DOCTYPE svg PUBLIC "-//W3C//DTD SVG 20010904//EN"
 "http://www.w3.org/TR/2001/REC-SVG-20010904/DTD/svg10.dtd">
<svg version="1.0" xmlns="http://www.w3.org/2000/svg"
 width="512.000000pt" height="512.000000pt" viewBox="0 0 512.000000 512.000000"
 preserveAspectRatio="xMidYMid meet">
<metadata>
Created by potrace 1.14, written by Peter Selinger 2001-2017
</metadata>
<g transform="translate(0.000000,512.000000) scale(0.100000,-0.100000)"
fill="#000000" stroke="none">
<path d="M1229 5092 c-52 -34 -96 -83 -117 -132 -8 -19 -22 -89 -31 -155 l-16
-120 -50 -6 c-28 -4 -65 -14 -83 -23 -46 -24 -111 -91 -129 -133 -22 -55 -85
-770 -70 -803 16 -33 72 -60 124 -60 42 0 42 0 48 -42 3 -24 89 -804 190
-1735 126 -1160 189 -1704 200 -1730 18 -43 86 -117 127 -139 23 -12 140 -14
713 -14 l685 0 20 33 c25 40 19 73 -21 110 l-29 27 -641 0 -640 0 -24 25 c-14
13 -25 30 -25 37 0 7 -14 134 -30 283 -17 148 -30 273 -30 277 0 4 522 8 1160
8 638 0 1160 -4 1160 -8 0 -4 -13 -129 -30 -277 -16 -149 -30 -276 -30 -283 0
-7 -11 -24 -25 -37 l-24 -25 -231 0 c-245 0 -276 -5 -300 -49 -17 -33 -12 -76
13 -99 23 -22 30 -22 301 -22 220 0 283 3 304 14 41 22 109 96 127 139 11 26
74 570 200 1730 101 931 187 1711 190 1735 6 42 6 42 48 42 52 0 108 27 124
60 15 33 -48 748 -70 803 -18 42 -83 109 -129 133 -18 9 -55 19 -83 23 l-50 6
-16 120 c-9 66 -23 136 -31 155 -21 49 -65 98 -117 132 l-45 28 -1286 0 -1286
0 -45 -28z m2565 -152 c14 -5 30 -19 36 -31 9 -16 38 -178 40 -221 0 -5 -421
-8 -936 -8 l-936 0 -29 -29 c-39 -40 -39 -82 0 -122 l29 -29 1046 0 c630 0
1055 -4 1069 -9 14 -6 28 -18 31 -28 5 -17 56 -559 56 -597 0 -15 -127 -16
-1640 -16 -1513 0 -1640 1 -1640 16 0 38 51 580 56 597 3 10 17 22 31 28 13 5
165 9 338 9 l313 0 31 35 c39 45 39 65 0 110 l-31 35 -204 0 c-112 0 -204 3
-204 8 2 43 31 205 40 222 6 11 21 25 33 30 30 12 2439 13 2471 0z m236 -1302
c0 -13 -11 -120 -25 -238 -14 -118 -25 -218 -25 -222 0 -5 -639 -8 -1420 -8
-781 0 -1420 3 -1420 8 0 4 -11 104 -25 222 -14 118 -25 225 -25 238 l0 22
1470 0 1470 0 0 -22z m-74 -690 c-3 -24 -51 -459 -106 -968 -55 -509 -103
-942 -106 -962 l-6 -38 -1178 0 -1178 0 -6 38 c-3 20 -51 453 -106 962 -55
509 -103 944 -106 968 l-6 42 1402 0 1402 0 -6 -42z"/>
<path d="M2526 2665 c-117 -32 -175 -71 -310 -209 -240 -243 -296 -322 -332
-466 -35 -136 -1 -317 81 -436 51 -74 148 -163 220 -201 188 -99 426 -82 596
43 66 48 332 333 380 407 62 95 84 174 84 302 0 89 -5 123 -23 177 -61 178
-230 336 -407 383 -72 18 -221 18 -289 0z m288 -192 c26 -10 47 -22 46 -28 -1
-5 -44 -56 -96 -113 -77 -84 -94 -108 -94 -134 0 -45 43 -88 89 -88 31 0 45
11 138 108 114 119 107 118 144 22 29 -76 29 -194 0 -272 -31 -81 -61 -121
-207 -275 -147 -156 -203 -193 -317 -214 -73 -14 -160 -4 -232 27 l-38 15 45
47 c24 26 104 111 176 189 116 125 132 146 132 176 0 28 -8 42 -36 67 -54 47
-71 38 -199 -98 -225 -240 -244 -258 -255 -242 -52 79 -68 230 -35 330 26 80
65 132 214 290 137 144 194 186 289 210 54 14 179 5 236 -17z"/>
</g>
</svg>
